<mxfile host="app.diagrams.net" agent="Mozilla/5.0 (Windows NT 10.0; Win64; x64) AppleWebKit/537.36 (KHTML, like Gecko) Chrome/127.0.0.0 Safari/537.36" version="24.7.7">
  <diagram name="Page-1" id="RypLW1_FIOxqWgVOKrKw">
    <mxGraphModel dx="1368" dy="1097" grid="1" gridSize="10" guides="1" tooltips="1" connect="1" arrows="1" fold="1" page="1" pageScale="1" pageWidth="850" pageHeight="1100" math="0" shadow="0">
      <root>
        <mxCell id="0" />
        <mxCell id="1" parent="0" />
        <UserObject label="&lt;div style=&quot;font-size: 1px&quot;&gt;&lt;font style=&quot;font-size:11.29px;font-family:Arial;color:#000000;direction:ltr;letter-spacing:0px;line-height:120%;opacity:1&quot;&gt;Pilot&lt;br/&gt;Airplane* plane&lt;br/&gt;&lt;/font&gt;&lt;/div&gt;" tags="Background" id="XkghrXWSVFBGkya2pgBT-1">
          <mxCell style="verticalAlign=top;align=center;overflow=width;vsdxID=1;fillColor=#e8eef7;gradientColor=none;shape=stencil(nZBLDoAgDERP0z3SIyjew0SURgSD+Lu9kMZoXLhwN9O+tukAlrNpJg1SzDH4QW/URgNYgZTkjA4UkwJUgGXng+6DX1zLfmoymdXo17xh5zmRJ6Q42BWCfc2oJfdAr+Yv+AP9Cb7OJ3H/2JG1HNGz/84klThPVCc=);strokeColor=#000000;points=[[1,0.5,0],[0.5,0,0],[0.5,0.5,0],[0.5,0.5,0]];labelBackgroundColor=none;rounded=0;html=1;whiteSpace=wrap;" parent="1" vertex="1">
            <mxGeometry x="88" y="86.5" width="130" height="36" as="geometry" />
          </mxCell>
        </UserObject>
        <UserObject label="&lt;div style=&quot;font-size: 1px&quot;&gt;&lt;font style=&quot;font-size:11.29px;font-family:Arial;color:#000000;direction:ltr;letter-spacing:0px;line-height:120%;opacity:1&quot;&gt;Airplane&lt;br&gt;Virtual fly(){&lt;/font&gt;&lt;span style=&quot;font-family: Arial; font-size: 11.29px; letter-spacing: 0px; background-color: initial;&quot;&gt;default_fly;&amp;nbsp;&lt;/span&gt;&lt;span style=&quot;background-color: initial; font-family: Arial; font-size: 11.29px; letter-spacing: 0px;&quot;&gt;}&lt;/span&gt;&lt;/div&gt;" tags="Background" id="XkghrXWSVFBGkya2pgBT-2">
          <mxCell style="verticalAlign=top;align=center;overflow=width;vsdxID=2;fillColor=#e8eef7;gradientColor=none;shape=stencil(nZBLDoAgDERP0z3SIyjew0SURgSD+Lu9kMZoXLhwN9O+tukAlrNpJg1SzDH4QW/URgNYgZTkjA4UkwJUgGXng+6DX1zLfmoymdXo17xh5zmRJ6Q42BWCfc2oJfdAr+Yv+AP9Cb7OJ3H/2JG1HNGz/84klThPVCc=);strokeColor=#000000;points=[[0.5,1,0],[1,0.5,0],[0.5,0,0],[0,0.5,0],[0.5,0.5,0]];labelBackgroundColor=none;rounded=0;html=1;whiteSpace=wrap;" parent="1" vertex="1">
            <mxGeometry x="250" y="85" width="160" height="37.5" as="geometry" />
          </mxCell>
        </UserObject>
        <UserObject label="&lt;div style=&quot;font-size: 1px&quot;&gt;&lt;font style=&quot;font-size:11.29px;font-family:Arial;color:#000000;direction:ltr;letter-spacing:0px;line-height:120%;opacity:1&quot;&gt;Airplane_A&lt;br/&gt;//Use base fly&lt;br/&gt;&lt;/font&gt;&lt;/div&gt;" tags="Background" id="XkghrXWSVFBGkya2pgBT-3">
          <mxCell style="verticalAlign=top;align=center;overflow=width;vsdxID=3;fillColor=#e8eef7;gradientColor=none;shape=stencil(nZBLDoAgDERP0z3SIyjew0SURgSD+Lu9kMZoXLhwN9O+tukAlrNpJg1SzDH4QW/URgNYgZTkjA4UkwJUgGXng+6DX1zLfmoymdXo17xh5zmRJ6Q42BWCfc2oJfdAr+Yv+AP9Cb7OJ3H/2JG1HNGz/84klThPVCc=);strokeColor=#000000;points=[[1,0.5,0],[0.5,0,0],[0.5,0.5,0],[0.5,0.5,0]];labelBackgroundColor=none;rounded=0;html=1;whiteSpace=wrap;" parent="1" vertex="1">
            <mxGeometry x="210" y="155" width="106" height="35" as="geometry" />
          </mxCell>
        </UserObject>
        <UserObject label="&lt;div style=&quot;font-size: 1px&quot;&gt;&lt;font style=&quot;font-size:11.29px;font-family:Arial;color:#000000;direction:ltr;letter-spacing:0px;line-height:120%;opacity:1&quot;&gt;Airplane_B&lt;br&gt;Virtual fly{new fly method;}&lt;br&gt;&lt;/font&gt;&lt;/div&gt;" tags="Background" id="XkghrXWSVFBGkya2pgBT-4">
          <mxCell style="verticalAlign=top;align=center;overflow=width;vsdxID=5;fillColor=#e8eef7;gradientColor=none;shape=stencil(nZBLDoAgDERP0z3SIyjew0SURgSD+Lu9kMZoXLhwN9O+tukAlrNpJg1SzDH4QW/URgNYgZTkjA4UkwJUgGXng+6DX1zLfmoymdXo17xh5zmRJ6Q42BWCfc2oJfdAr+Yv+AP9Cb7OJ3H/2JG1HNGz/84klThPVCc=);strokeColor=#000000;points=[[1,0.5,0],[0.5,0,0],[0.5,0.5,0],[0.5,0.5,0]];labelBackgroundColor=none;rounded=0;html=1;whiteSpace=wrap;" parent="1" vertex="1">
            <mxGeometry x="327" y="155" width="146" height="35" as="geometry" />
          </mxCell>
        </UserObject>
        <UserObject label="" tags="Connector" id="XkghrXWSVFBGkya2pgBT-5">
          <mxCell style="vsdxID=4;edgeStyle=none;startFill=0;startArrow=block;endArrow=none;startSize=5;endSize=5;strokeColor=#4677bf;spacingTop=0;spacingBottom=0;spacingLeft=0;spacingRight=0;verticalAlign=middle;html=1;labelBackgroundColor=#FFFFFF;rounded=0;exitX=0.5;exitY=1;exitDx=0;exitDy=0;exitPerimeter=0;entryX=0.5;entryY=0;entryDx=0;entryDy=0;entryPerimeter=0;" parent="1" source="XkghrXWSVFBGkya2pgBT-2" target="XkghrXWSVFBGkya2pgBT-3" edge="1">
            <mxGeometry relative="1" as="geometry">
              <mxPoint as="offset" />
              <Array as="points">
                <mxPoint x="330" y="140" />
                <mxPoint x="263" y="140" />
              </Array>
            </mxGeometry>
          </mxCell>
        </UserObject>
        <UserObject label="" tags="Connector" id="XkghrXWSVFBGkya2pgBT-6">
          <mxCell style="vsdxID=6;edgeStyle=none;startFill=0;startArrow=block;endArrow=none;startSize=5;endSize=5;strokeColor=#4677bf;spacingTop=0;spacingBottom=0;spacingLeft=0;spacingRight=0;verticalAlign=middle;html=1;labelBackgroundColor=#FFFFFF;rounded=0;exitX=0.5;exitY=1;exitDx=0;exitDy=0;exitPerimeter=0;entryX=0.5;entryY=0;entryDx=0;entryDy=0;entryPerimeter=0;" parent="1" source="XkghrXWSVFBGkya2pgBT-2" target="XkghrXWSVFBGkya2pgBT-4" edge="1">
            <mxGeometry relative="1" as="geometry">
              <mxPoint as="offset" />
              <Array as="points">
                <mxPoint x="330" y="140" />
                <mxPoint x="370" y="140" />
                <mxPoint x="400" y="140" />
              </Array>
            </mxGeometry>
          </mxCell>
        </UserObject>
        <UserObject label="" tags="Connector" id="XkghrXWSVFBGkya2pgBT-7">
          <mxCell style="vsdxID=7;edgeStyle=none;startArrow=none;endArrow=block;startSize=5;endSize=5;strokeColor=#4677bf;spacingTop=0;spacingBottom=0;spacingLeft=0;spacingRight=0;verticalAlign=middle;html=1;labelBackgroundColor=#FFFFFF;rounded=0;exitX=1;exitY=0.5;exitDx=0;exitDy=0;exitPerimeter=0;entryX=0;entryY=0.5;entryDx=0;entryDy=0;entryPerimeter=0;" parent="1" source="XkghrXWSVFBGkya2pgBT-1" target="XkghrXWSVFBGkya2pgBT-2" edge="1">
            <mxGeometry relative="1" as="geometry">
              <mxPoint x="-1" as="offset" />
              <Array as="points" />
              <mxPoint x="255" y="104" as="targetPoint" />
            </mxGeometry>
          </mxCell>
        </UserObject>
      </root>
    </mxGraphModel>
  </diagram>
</mxfile>
